# xmcd
#
# Track frame offsets: 
#        150
#        17162
#        33195
#        52320
#        70962
#        88702
#        105127
#        127460
#        143962
#        158662
#        176110
#        194145
#        210985
#        228757
#        246435
#        266537
#        281017
#        300542
#
# Disc length: 4232 seconds
#
# Revision: 1
# Processed by: cddbd v1.5.2PL0 Copyright (c) Steve Scherf et al.
# Submitted via: ExactAudioCopy v0.95a5
#
DISCID=09108612
DTITLE=Various Artist - Precious 2 [Disc 1]
DYEAR=2005
DGENRE=R&B
TTITLE0=Usher - Caught Up
TTITLE1=Alicia Keys - Karma(Reggaeton Mix)
TTITLE2=Destiny's Child - Survivor
TTITLE3=Cassidy - Hotel feat. R.Kelly
TTITLE4=Akon - Lonely
TTITLE5=Black Eyed Peas - Let's Get It Started
TTITLE6=R.Kelly - Happy peaple
TTITLE7=Cam'Ron - Girls feat. Mona Lisa
TTITLE8=Kanye West - Jesus Walk
TTITLE9=Fantasista - Truth Is
TTITLE10=Tweet - Oops(Oh my) feat. Missy Elliott
TTITLE11=Eve - Who's That Girl?
TTITLE12=De La Soul - Shopping Bags (She Got From You)
TTITLE13=Angie Stone - Stay For A While feat. Anthony Hamilton
TTITLE14=Mary J Blige - Family Affair
TTITLE15=Nicole Wray - If I Was Your Girlfriend
TTITLE16=Rubben Studdard - Sorry 2004
TTITLE17=Aaliyah - Back and Forth
EXTD=YEAR: 2005
EXTT0=
EXTT1=
EXTT2=
EXTT3=
EXTT4=
EXTT5=
EXTT6=
EXTT7=
EXTT8=
EXTT9=
EXTT10=
EXTT11=
EXTT12=
EXTT13=
EXTT14=
EXTT15=
EXTT16=
EXTT17=
PLAYORDER=
